<svg fill="none" height="20" viewBox="0 0 20 20" width="20" xmlns="http://www.w3.org/2000/svg"><g fill="#f7fffa"><path d="m11.4444 9.16853c.1645-.10988.3578-.16853.5556-.16853.2652 0 .5196.10536.7071.29289.1875.18754.2929.44189.2929.70711 0 .1978-.0586.3911-.1685.5556-.1099.1644-.2661.2926-.4488.3683s-.3838.0955-.5778.0569-.3722-.1338-.512-.2737c-.1399-.1398-.2351-.318-.2737-.512s-.0188-.39506.0569-.57778c.0757-.18273.2039-.33891.3683-.44879z"/><path clip-rule="evenodd" d="m18 4c0-.26522-.1054-.51957-.2929-.70711-.1875-.18753-.4419-.29289-.7071-.29289h-14c-.26522 0-.51957.10536-.70711.29289-.18753.18754-.29289.44189-.29289.70711v12c0 .2652.10536.5196.29289.7071.18754.1875.44189.2929.70711.2929h14c.2652 0 .5196-.1054.7071-.2929s.2929-.4419.2929-.7071zm-1 0v3h-6c-.7956 0-1.55871.31607-2.12132.87868s-.87868 1.32567-.87868 2.12132c0 .7956.31607 1.5587.87868 2.1213s1.32572.8787 2.12132.8787h6v3h-14v-12zm-6 4h6v4h-6c-.5304 0-1.03914-.2107-1.41422-.5858-.37507-.3751-.58578-.8838-.58578-1.4142 0-.53043.21071-1.03914.58578-1.41422.37508-.37507.88382-.58578 1.41422-.58578z" fill-rule="evenodd"/></g></svg>