<svg fill="none" height="20" viewBox="0 0 20 20" width="20" xmlns="http://www.w3.org/2000/svg"><path d="m11.8293 6.12372c-.2079-.18184-.5237-.16078-.7056.04703-.1818.20782-.1608.5237.0471.70555l2.9985 2.6237h-9.6693c-.27614 0-.5.22386-.5.5 0 .2761.22386.5.5.5h9.6693l-2.9985 2.6237c-.2079.1819-.2289.4977-.0471.7056.1819.2078.4977.2288.7056.047l4-3.5c.0196-.0172.0378-.0358.0543-.0556.069-.0825.1098-.1855.1157-.2938.0005-.0089.0007-.0179.0007-.0269 0-.14136-.0587-.26903-.153-.35997-.0065-.00627-.0131-.01236-.02-.01827z" fill="#fff"/></svg>