<svg width="20" height="20" viewBox="0 0 20 20" fill="none" xmlns="http://www.w3.org/2000/svg">
<path d="M11.8293 6.12372C11.6214 5.94188 11.3056 5.96294 11.1237 6.17075C10.9419 6.37857 10.9629 6.69445 11.1708 6.8763L14.1693 9.5H4.5C4.22386 9.5 4 9.72386 4 10C4 10.2761 4.22386 10.5 4.5 10.5H14.1693L11.1708 13.1237C10.9629 13.3056 10.9419 13.6214 11.1237 13.8293C11.3056 14.0371 11.6214 14.0581 11.8293 13.8763L15.8293 10.3763C15.8489 10.3591 15.8671 10.3405 15.8836 10.3207C15.9526 10.2382 15.9934 10.1352 15.9993 10.0269C15.9998 10.018 16 10.009 16 10C16 9.85864 15.9413 9.73097 15.847 9.64003C15.8405 9.63376 15.8339 9.62767 15.827 9.62176L11.8293 6.12372Z" fill="white"/>
</svg>
