<svg width="20" height="20" viewBox="0 0 20 20" fill="none" xmlns="http://www.w3.org/2000/svg">
<path d="M10.5 11.25H13.56C13.6926 11.25 13.8198 11.3027 13.9136 11.3964C14.0073 11.4902 14.06 11.6174 14.06 11.75C14.06 11.8826 14.0073 12.0098 13.9136 12.1035C13.8198 12.1973 13.6926 12.25 13.56 12.25H10.5V14.79C10.5 14.9226 10.4473 15.0498 10.3536 15.1435C10.2598 15.2373 10.1326 15.29 10 15.29C9.86739 15.29 9.74021 15.2373 9.64645 15.1435C9.55268 15.0498 9.5 14.9226 9.5 14.79V12.25H6.44C6.30739 12.25 6.18022 12.1973 6.08645 12.1035C5.99268 12.0098 5.94 11.8826 5.94 11.75C5.94 11.6174 5.99268 11.4902 6.08645 11.3964C6.18022 11.3027 6.30739 11.25 6.44 11.25H9.5V9.24998H6.44C6.30739 9.24998 6.18022 9.1973 6.08645 9.10353C5.99268 9.00976 5.94 8.88259 5.94 8.74998C5.94 8.61737 5.99268 8.49019 6.08645 8.39642C6.18022 8.30266 6.30739 8.24998 6.44 8.24998H9.29L7.65 6.59998C7.55718 6.50715 7.50503 6.38125 7.50503 6.24998C7.50503 6.1187 7.55718 5.9928 7.65 5.89998C7.74283 5.80715 7.86872 5.755 8 5.755C8.13128 5.755 8.25717 5.80715 8.35 5.89998L10 7.53998L11.65 5.89998C11.7428 5.80715 11.8687 5.755 12 5.755C12.1313 5.755 12.2572 5.80715 12.35 5.89998C12.4428 5.9928 12.495 6.1187 12.495 6.24998C12.495 6.38125 12.4428 6.50715 12.35 6.59998L10.71 8.24998H13.56C13.6926 8.24998 13.8198 8.30266 13.9136 8.39642C14.0073 8.49019 14.06 8.61737 14.06 8.74998C14.06 8.88259 14.0073 9.00976 13.9136 9.10353C13.8198 9.1973 13.6926 9.24998 13.56 9.24998H10.5V11.25Z" fill="#F7FFFA"/>
<path fill-rule="evenodd" clip-rule="evenodd" d="M4.34315 4.34315C5.84344 2.84286 7.87827 2 10 2C12.1217 2 14.1566 2.84286 15.6569 4.34315C17.1571 5.84344 18 7.87827 18 10C18 12.1217 17.1571 14.1566 15.6569 15.6569C14.1566 17.1571 12.1217 18 10 18C7.87827 18 5.84344 17.1571 4.34315 15.6569C2.84286 14.1566 2 12.1217 2 10C2 7.87827 2.84286 5.84344 4.34315 4.34315ZM13.889 4.17971C12.7378 3.41054 11.3845 3 10 3C8.14348 3 6.36301 3.7375 5.05025 5.05025C3.7375 6.36301 3 8.14348 3 10C3 11.3845 3.41054 12.7378 4.17971 13.889C4.94888 15.0401 6.04213 15.9373 7.32121 16.4672C8.6003 16.997 10.0078 17.1356 11.3656 16.8655C12.7235 16.5954 13.9708 15.9287 14.9497 14.9497C15.9287 13.9708 16.5954 12.7235 16.8655 11.3656C17.1356 10.0078 16.997 8.6003 16.4672 7.32121C15.9373 6.04213 15.0401 4.94888 13.889 4.17971Z" fill="#F7FFFA"/>
</svg>
