<svg fill="none" height="20" viewBox="0 0 20 20" width="20" xmlns="http://www.w3.org/2000/svg"><g fill="#f7fffa"><path d="m10.5 11.25h3.06c.1326 0 .2598.0527.3536.1464.0937.0938.1464.221.1464.3536s-.0527.2598-.1464.3535c-.0938.0938-.221.1465-.3536.1465h-3.06v2.54c0 .1326-.0527.2598-.1464.3535-.0938.0938-.221.1465-.3536.1465-.13261 0-.25979-.0527-.35355-.1465-.09377-.0937-.14645-.2209-.14645-.3535v-2.54h-3.06c-.13261 0-.25978-.0527-.35355-.1465-.09377-.0937-.14645-.2209-.14645-.3535s.05268-.2598.14645-.3536c.09377-.0937.22094-.1464.35355-.1464h3.06v-2.00002h-3.06c-.13261 0-.25978-.05268-.35355-.14645s-.14645-.22094-.14645-.35355.05268-.25979.14645-.35356c.09377-.09376.22094-.14644.35355-.14644h2.85l-1.64-1.65c-.09282-.09283-.14497-.21873-.14497-.35 0-.13128.05215-.25718.14497-.35.09283-.09283.21872-.14498.35-.14498s.25717.05215.35.14498l1.65 1.64 1.65-1.64c.0928-.09283.2187-.14498.35-.14498s.2572.05215.35.14498c.0928.09282.145.21872.145.35 0 .13127-.0522.25717-.145.35l-1.64 1.65h2.85c.1326 0 .2598.05268.3536.14644.0937.09377.1464.22095.1464.35356s-.0527.25978-.1464.35355c-.0938.09377-.221.14645-.3536.14645h-3.06z"/><path clip-rule="evenodd" d="m4.34315 4.34315c1.50029-1.50029 3.53512-2.34315 5.65685-2.34315 2.1217 0 4.1566.84286 5.6569 2.34315 1.5002 1.50029 2.3431 3.53512 2.3431 5.65685 0 2.1217-.8429 4.1566-2.3431 5.6569-1.5003 1.5002-3.5352 2.3431-5.6569 2.3431-2.12173 0-4.15656-.8429-5.65685-2.3431-1.50029-1.5003-2.34315-3.5352-2.34315-5.6569 0-2.12173.84286-4.15656 2.34315-5.65685zm9.54585-.16344c-1.1512-.76917-2.5045-1.17971-3.889-1.17971-1.85652 0-3.63699.7375-4.94975 2.05025-1.31275 1.31276-2.05025 3.09323-2.05025 4.94975 0 1.3845.41054 2.7378 1.17971 3.889.76917 1.1511 1.86242 2.0483 3.1415 2.5782 1.27909.5298 2.68659.6684 4.04439.3983 1.3579-.2701 2.6052-.9368 3.5841-1.9158.979-.9789 1.6457-2.2262 1.9158-3.5841.2701-1.3578.1315-2.7653-.3983-4.04439-.5299-1.27908-1.4271-2.37233-2.5782-3.1415z" fill-rule="evenodd"/></g></svg>