<svg fill="none" height="20" viewBox="0 0 20 20" width="20" xmlns="http://www.w3.org/2000/svg"><path d="m6.85355 6.14645c-.19526-.19527-.51184-.19527-.7071 0-.19527.19526-.19527.51184 0 .7071l3.14644 3.14645-3.14644 3.1464c-.19527.1953-.19527.5119 0 .7072.19526.1952.51184.1952.7071 0l3.14645-3.1465 3.1464 3.1465c.1953.1952.5119.1952.7072 0 .1952-.1953.1952-.5119 0-.7072l-3.1465-3.1464 3.1465-3.14645c.1952-.19526.1952-.51184 0-.7071-.1953-.19527-.5119-.19527-.7072 0l-3.1464 3.14644z" fill="#e51717"/></svg>